<?xml version="1.0" encoding="utf-8"?>
<!-- Generator: Adobe Illustrator 27.0.0, SVG Export Plug-In . SVG Version: 6.00 Build 0)  -->
<svg version="1.1" id="Calque_1" xmlns="http://www.w3.org/2000/svg" xmlns:xlink="http://www.w3.org/1999/xlink" x="0px" y="0px"
	 viewBox="0 0 391.41 141.1" style="enable-background:new 0 0 391.41 141.1;" xml:space="preserve">
<style type="text/css">
	.st0{fill:#034B1C;}
	.st1{fill:#022358;}
	.st2{fill:#022359;}
	.st3{fill:#F5EB04;}
	.st4{fill:#FE0404;}
	.st5{fill:#FE0303;}
	.st6{fill:#032459;}
	.st7{fill:#094F21;}
	.st8{fill:#102F61;}
	.st9{fill:#0C2B5F;}
	.st10{fill:#0E2D60;}
	.st11{fill:#0A2A5E;}
	.st12{fill:#FFFFFF;}
</style>
<g>
	<path class="st0" d="M49.79,29.67c0.01,0.32,0.2,0.55,0.33,0.81c6.64,13.17,12.01,26.83,15.97,41.04c1.42,5.1,2.6,10.27,3.49,15.49
		c0.54,3.18,0.96,6.37,1.25,9.59c0.34,3.69,0.47,7.39,0.37,11.1c-0.01,0.57-0.05,1.13-0.13,1.71c-0.15-1.07-0.3-2.14-0.45-3.21
		c-0.45-3.26-1.1-6.48-1.85-9.68c-2.52-10.84-6.1-21.33-10.35-31.6c-5.08-12.28-11.11-24.1-17.83-35.56
		c-0.68-1.16-1.37-2.3-2.05-3.46c-0.08-0.14-0.14-0.28-0.21-0.42c0.27-0.29,0.64-0.33,0.97-0.44c7.23-2.52,14.46-5.03,21.69-7.54
		c0.48-0.17,0.96-0.36,1.44-0.51c0.71-0.21,0.58-0.38,1.1,0.3c0.83,1.1,1.78,2.09,2.84,2.98c1.33,1.12,2.77,2.04,4.4,2.67
		c2.5,0.96,5.03,1.08,7.61,0.37c1.74-0.48,3.35-1.25,4.82-2.29c2.18-1.55,3.47-3.7,4.08-6.28c0.37-1.57,0.44-3.16,0.4-4.76
		c-0.02-0.83-0.02-0.83,0.81-1.08c4.86-1.46,9.71-2.92,14.57-4.38c0.21-0.06,0.43-0.13,0.64-0.19c0.23-0.06,0.37,0.04,0.44,0.25
		c0.44,1.33,0.92,2.65,1.33,3.99c1.43,4.67,2.57,9.41,3.5,14.21c0.65,3.32,1.19,6.66,1.64,10.01c0.24,1.74,0.4,3.49,0.62,5.23
		c0.08,0.58-0.07,1.03-0.45,1.48c-1.21,1.44-2.37,2.92-3.68,4.36c-0.19-0.15-0.19-0.37-0.22-0.57c-0.33-2.11-0.63-4.23-0.98-6.34
		c-1.08-6.52-2.53-12.96-4.38-19.3c-0.31-1.07-0.64-2.14-0.97-3.2c-0.13-0.42-0.2-0.46-0.61-0.36c-1.3,0.34-2.59,0.69-3.88,1.04
		c-0.4,0.11-0.8,0.21-1.2,0.31c-0.26,0.06-0.44,0.19-0.54,0.47c-1.45,3.73-4.02,6.55-7.18,8.89c-2.35,1.74-4.93,3.05-7.67,4.07
		c-0.63,0.24-1.3,0.34-1.95,0.46c-4.08,0.73-8.01,0.32-11.75-1.54c-1.34-0.67-2.66-1.39-3.95-2.15c-0.26-0.16-0.5-0.2-0.81-0.09
		c-3.65,1.34-7.31,2.67-10.96,4.01C49.94,29.57,49.87,29.63,49.79,29.67z"/>
	<path class="st1" d="M108.44,92.24c0.11,0.21,0.07,0.44,0.07,0.66c0,2.94-0.01,5.88,0.01,8.81c0,0.51-0.14,0.93-0.41,1.34
		c-2.5,3.87-5.95,6.45-10.4,7.65c-4.13,1.11-8.24,0.99-12.2-0.66c-4.96-2.07-8.45-5.62-9.92-10.84c-2.01-7.1,0.56-14.23,6.83-18.43
		c2.77-1.85,5.84-2.83,9.17-2.95c2.61-0.09,5.16,0.21,7.6,1.19c2.86,1.15,5.16,3.01,6.98,5.5c0.08,0.1,0.15,0.21,0.21,0.32
		c0.07,0.12,0.05,0.25-0.05,0.34c-0.11,0.11-0.24,0.22-0.36,0.32c-1.63,1.39-3.26,2.77-4.89,4.16c-0.07,0.06-0.15,0.12-0.22,0.18
		c-0.15,0.12-0.28,0.1-0.41-0.04c-0.44-0.51-0.85-1.04-1.32-1.51c-2.18-2.19-4.86-2.95-7.88-2.65c-0.96,0.09-1.89,0.31-2.77,0.7
		c-2.14,0.94-3.58,2.53-4.32,4.73c-0.76,2.28-0.79,4.58-0.06,6.87c0.91,2.87,2.86,4.71,5.74,5.53c2.17,0.62,4.35,0.57,6.51-0.1
		c1.21-0.38,2.27-1,3.2-1.87c0.35-0.32,0.58-0.66,0.5-1.17c-0.03-0.19-0.01-0.38-0.02-0.57c0-0.15-0.09-0.24-0.23-0.25
		c-0.25-0.02-0.51-0.03-0.76-0.03c-1.88,0-3.77,0-5.65,0c-0.22,0-0.45-0.01-0.67-0.02c-0.15-0.01-0.22-0.12-0.24-0.25
		c-0.02-0.16-0.02-0.32-0.02-0.48c0-1.95,0-3.9,0-5.84c0-0.13,0-0.26,0.01-0.38c0.01-0.19,0.14-0.27,0.32-0.29
		c0.09-0.01,0.19-0.01,0.29-0.01c4.98,0,9.96,0,14.95,0c0.09,0,0.19,0.03,0.28,0.04c0,0,0.05,0.02,0.05,0.02L108.44,92.24z"/>
	<path class="st2" d="M144.16,13.38c-0.09,0.09-0.17,0.19-0.26,0.28c-5.51,4.76-10.39,10.1-14.92,15.78
		c-7.27,9.12-13.41,18.96-18.68,29.35c-1.75,3.44-3.42,6.92-4.91,10.48c-0.31,0.74-0.72,1.43-1.33,1.97
		c-0.63,0.55-1.34,0.71-2.14,0.47c-0.43-0.13-0.82-0.36-1.05-0.77c-0.39-0.69-0.8-1.38-1.19-2.07c-4.58-8.02-10.35-15.1-17.02-21.46
		c-0.23-0.22-0.47-0.43-0.72-0.66c0.15-0.16,0.24-0.29,0.36-0.39c1.76-1.49,3.59-2.87,5.61-3.99c0.95-0.53,1.94-0.98,3.02-1.19
		c0.35-0.07,0.7-0.1,1.05-0.05c0.52,0.08,0.94,0.29,1.27,0.76c3.02,4.35,6.12,8.65,8.93,13.15c0.05,0.08,0.11,0.16,0.16,0.23
		c0.26,0,0.3-0.22,0.39-0.38c8.61-14.79,19.91-27.12,33.85-37.05c2.11-1.5,4.28-2.9,6.51-4.22c0.27-0.16,0.56-0.31,0.84-0.46
		C143.98,13.23,144.07,13.3,144.16,13.38z"/>
	<path class="st2" d="M320.84,95.39c1.56-2.02,3.12-4.04,4.68-6.06c0.82-1.06,1.64-2.12,2.46-3.18c0.18-0.24,0.36-0.41,0.7-0.4
		c3.03,0.02,6.07,0.02,9.1,0.02c0.02,0,0.04,0.04,0.07,0.06c0.07,0.26-0.15,0.39-0.28,0.56c-2.45,3.19-4.91,6.37-7.36,9.56
		c-0.71,0.93-0.69,0.63-0.04,1.61c2.61,3.94,5.22,7.87,7.84,11.8c0.17,0.26,0.34,0.53,0.5,0.78c-0.14,0.26-0.35,0.17-0.53,0.17
		c-2.65,0.01-5.3-0.01-7.95,0.02c-0.52,0.01-0.81-0.17-1.09-0.59c-2.52-3.77-5.06-7.52-7.59-11.28c-0.17-0.26-0.35-0.51-0.55-0.79
		c-0.27,0.19-0.17,0.43-0.17,0.62c-0.01,2.59,0,5.17,0,7.76c0,1.15,0,2.3,0,3.45c0,0.82,0.06,0.82-0.85,0.81c-1.92,0-3.83,0-5.75,0
		c-0.51,0-1.02,0-1.53,0c-0.18,0-0.3-0.09-0.31-0.28c-0.01-0.22-0.01-0.45-0.01-0.67c0-11.62,0-23.24,0-34.86
		c0-1.18-0.07-1.02,1.02-1.02c2.14-0.01,4.28,0,6.42,0c0.22,0,0.45,0,0.67,0c0.24,0.01,0.34,0.14,0.34,0.37c0,0.29,0,0.57,0,0.86
		c0,6.54,0,13.09,0,19.63c0,0.34,0.02,0.68,0.03,1.02C320.72,95.37,320.78,95.38,320.84,95.39z"/>
	<path class="st2" d="M346.89,101c0.55,1.07,1.27,1.71,2.19,2.14c0.76,0.36,1.57,0.53,2.4,0.59c2.19,0.16,4.25-0.29,6.2-1.27
		c0.17-0.09,0.34-0.18,0.51-0.26c0.17-0.09,0.34-0.17,0.49-0.25c0.19,0.07,0.26,0.2,0.34,0.34c0.85,1.61,1.7,3.21,2.55,4.82
		c0.04,0.08,0.09,0.17,0.13,0.26c0.07,0.17,0.02,0.31-0.12,0.42c-0.1,0.08-0.2,0.15-0.31,0.23c-2.47,1.72-5.19,2.69-8.21,2.85
		c-2.46,0.13-4.85-0.17-7.11-1.18c-3.75-1.67-6.29-4.43-7.3-8.45c-1.81-7.23,2.56-14.04,9.53-15.69c2.51-0.6,5.01-0.54,7.45,0.36
		c3.9,1.45,6.27,4.27,7.19,8.3c0.48,2.12,0.33,4.25-0.16,6.36c-0.09,0.39-0.14,0.43-0.5,0.44c-0.26,0.01-0.51,0-0.77,0
		c-4.44,0-8.88,0-13.31,0C347.74,101,347.39,101,346.89,101z M346.64,95.47c0.22,0.01,0.38,0.02,0.54,0.02c2.42,0,4.84,0,7.26,0
		c0.13,0,0.25,0,0.38-0.01c0.21-0.01,0.27-0.14,0.25-0.32c-0.17-1.56-1.04-2.6-2.48-3.09C349.51,91.04,347.07,93.07,346.64,95.47z"
		/>
	<path class="st2" d="M230.58,108.05c-0.15,0.14-0.26,0.25-0.39,0.34c-3.35,2.37-7.06,3.31-11.14,2.88
		c-1.8-0.19-3.51-0.67-5.12-1.49c-5.13-2.62-7.58-7.94-6.75-13.32c0.8-5.17,4.83-9.55,10.37-10.57c2.37-0.44,4.71-0.35,6.98,0.52
		c3.74,1.43,6.05,4.15,7.02,8.01c0.54,2.15,0.41,4.31-0.07,6.45c-0.12,0.57-0.14,0.57-0.78,0.57c-2.81,0-5.62,0-8.43,0
		c-1.85,0-3.7,0-5.56,0c-0.26,0-0.51,0-0.77,0.02c-0.16,0.01-0.21,0.14-0.15,0.27c0.24,0.5,0.6,0.9,1.02,1.25
		c0.79,0.65,1.71,0.98,2.7,1.14c2.01,0.32,3.95,0.04,5.82-0.71c0.62-0.25,1.21-0.56,1.81-0.86c0.36-0.18,0.41-0.18,0.59,0.16
		c0.65,1.21,1.29,2.42,1.93,3.64C229.98,106.92,230.27,107.48,230.58,108.05z M219.61,95.95C219.61,95.95,219.61,95.95,219.61,95.95
		c0.83,0,1.66,0,2.48,0c0.45,0,0.89,0.01,1.34,0c0.38-0.01,0.47-0.11,0.41-0.45c-0.21-1.21-0.84-2.12-1.92-2.69
		c-2.28-1.21-5.42-0.38-6.45,2.73c-0.09,0.28,0.01,0.41,0.32,0.41C217.06,95.96,218.34,95.95,219.61,95.95z"/>
	<path class="st1" d="M153.01,98.52c0-3.74,0-7.47,0-11.21c0-0.19,0-0.38,0-0.57c0.01-0.44,0.04-0.46,0.51-0.48
		c0.06,0,0.13,0,0.19,0c2.11,0,4.22,0,6.32,0c0.13,0,0.26,0,0.38,0.01c0.19,0.01,0.28,0.12,0.28,0.31c0,0.35,0,0.7,0.01,1.05
		c0,0.12-0.05,0.26,0.08,0.34c0.19,0.11,0.28-0.08,0.4-0.15c0.08-0.05,0.15-0.12,0.23-0.18c1.59-1.23,3.4-1.85,5.4-1.96
		c1.41-0.08,2.81,0.01,4.16,0.47c2.91,1.01,4.71,3.07,5.57,5.98c0.3,1.02,0.45,2.06,0.45,3.12c0,4.98,0.01,9.96,0,14.95
		c0,0.59-0.02,0.6-0.58,0.61c-1.18,0.01-2.36,0-3.54,0c-1.25,0-2.49,0-3.74,0c-0.55,0-0.57-0.03-0.58-0.61c-0.01-0.51,0-1.02,0-1.53
		c0-3.7,0-7.41,0-11.11c0-0.35,0-0.7-0.02-1.05c-0.09-1.72-1.42-3.4-3.87-3.22c-1.85,0.14-3.03,1.37-3.21,3.22
		c-0.03,0.32-0.02,0.64-0.02,0.96c0,4.09,0,8.18,0,12.26c0,0.26,0,0.51-0.01,0.77c-0.01,0.18-0.09,0.3-0.28,0.31
		c-0.16,0.01-0.32,0.01-0.48,0.01c-2.3,0-4.6,0-6.9,0c-0.16,0-0.32,0-0.48-0.01c-0.19-0.01-0.28-0.12-0.29-0.31
		c-0.01-0.22-0.01-0.45-0.01-0.67C153.01,106.06,153.01,102.29,153.01,98.52z"/>
	<path class="st1" d="M188.86,101.45c0.33,0.8,0.63,1.2,1.24,1.65c0.76,0.57,1.62,0.87,2.55,1.02c2.18,0.35,4.26-0.01,6.26-0.88
		c0.58-0.25,1.14-0.55,1.7-0.82c0.17,0.08,0.24,0.23,0.31,0.37c0.84,1.58,1.67,3.16,2.51,4.73c0.04,0.08,0.09,0.17,0.14,0.25
		c0.1,0.19,0.09,0.37-0.09,0.5c-0.18,0.13-0.36,0.27-0.55,0.39c-3.3,2.18-6.91,3.04-10.83,2.6c-2.59-0.29-4.97-1.14-7.04-2.75
		c-3.05-2.37-4.67-5.49-4.88-9.35c-0.34-6.27,3.82-11.75,10-13.17c2.37-0.55,4.76-0.52,7.08,0.28c4.05,1.39,6.51,4.24,7.47,8.38
		c0.49,2.12,0.34,4.25-0.15,6.36c-0.09,0.4-0.12,0.42-0.49,0.43c-0.25,0.01-0.51,0-0.77,0c-4.44,0-8.87,0-13.31,0
		C189.65,101.45,189.3,101.45,188.86,101.45z M188.51,95.82c0.22,0.16,0.38,0.14,0.53,0.14c2.43,0,4.85,0,7.28,0
		c0.13,0,0.26,0.01,0.38-0.01c0.19-0.02,0.28-0.13,0.26-0.32c-0.12-1.2-0.72-2.11-1.73-2.72c-1.91-1.14-4.42-0.71-5.78,1.03
		C189.01,94.5,188.68,95.11,188.51,95.82z"/>
	<path class="st3" d="M48.48,46.09c0.13,0.13,0.07,0.29,0.02,0.43c-1.4,4.37-4.24,7.2-8.8,8.15c-1.7,0.35-3.41,0.44-5.14,0.26
		c-1.24-0.13-2.47-0.3-3.68-0.62c-0.12-0.03-0.25-0.05-0.38-0.08c-0.17-0.03-0.31,0.02-0.42,0.16c-0.06,0.07-0.12,0.15-0.18,0.22
		c-1,1.36-2.01,2.72-3.01,4.09c-0.06,0.08-0.11,0.16-0.16,0.24c-0.1,0.16-0.08,0.3,0.08,0.41c0.23,0.17,0.47,0.33,0.71,0.49
		c5.44,3.6,10.68,7.46,15.63,11.71c5.2,4.46,10.03,9.28,14.24,14.69c2.77,3.56,5.24,7.32,7.17,11.41c0.85,1.79,1.58,3.62,2.1,5.54
		c0.06,0.21,0.15,0.42,0.07,0.65c-0.21,0.04-0.26-0.14-0.33-0.26c-2.82-5.17-6.48-9.71-10.55-13.93
		c-4.42-4.58-9.25-8.71-14.32-12.55C33.6,71.1,25.24,65.77,16.49,61.04c-0.14-0.08-0.28-0.15-0.42-0.23
		c-0.18-0.1-0.22-0.24-0.09-0.38c0.13-0.14,0.27-0.27,0.41-0.41c3.81-3.69,7.61-7.38,11.42-11.06c0.85-0.82,0.58-0.74,1.6-0.23
		c1.81,0.9,3.7,1.58,5.71,1.87c3.4,0.5,6.61-0.1,9.61-1.78c1.18-0.66,2.26-1.44,3.23-2.38c0.14-0.13,0.29-0.24,0.44-0.36
		C48.4,46.07,48.45,46.09,48.48,46.09z"/>
	<path class="st1" d="M135.73,93.53c0,1.98,0,3.96,0,5.94c0,1.38-0.2,2.74-0.64,4.05c-1.24,3.71-3.75,6.17-7.5,7.31
		c-2.77,0.84-5.55,0.79-8.28-0.17c-3.96-1.4-6.36-4.22-7.33-8.28c-0.24-1-0.33-2.02-0.33-3.04c-0.01-4.09,0-8.17,0-12.26
		c0-0.13,0-0.26,0-0.38c0.02-0.36,0.09-0.44,0.46-0.44c1.66-0.01,3.32,0,4.98,0c0.86,0,1.72,0,2.59,0c0.33,0,0.4,0.08,0.42,0.38
		c0.01,0.25,0.01,0.51,0.01,0.77c0,3.99,0,7.98,0,11.97c0,0.48,0.04,0.96,0.09,1.43c0.05,0.52,0.27,0.99,0.57,1.4
		c0.95,1.28,2.28,1.6,3.75,1.32c1.37-0.26,2.24-1.14,2.62-2.5c0.13-0.47,0.14-0.94,0.14-1.42c0-4.09,0-8.17,0-12.26
		c0-0.26,0-0.51,0-0.77c0-0.24,0.14-0.33,0.36-0.33c0.48,0,0.96,0,1.44,0c1.85,0,3.7,0,5.55,0c0.26,0,0.51,0,0.77,0.01
		c0.17,0.01,0.3,0.09,0.31,0.29c0.01,0.26,0.01,0.51,0.01,0.77C135.74,89.38,135.73,91.45,135.73,93.53
		C135.73,93.53,135.73,93.53,135.73,93.53z"/>
	<path class="st1" d="M256.82,77.88c4.28,0,8.56,0,12.84,0c0.26,0,0.51,0,0.77,0.01c0.19,0,0.29,0.1,0.31,0.28
		c0.01,0.16,0.02,0.32,0.02,0.48c0,2.04,0,4.09,0,6.13c0,0.16,0,0.32-0.02,0.48c-0.01,0.14-0.09,0.24-0.24,0.25
		c-0.25,0.01-0.51,0.01-0.77,0.01c-2.55,0-5.11,0-7.66,0c-0.26,0-0.51,0-0.77,0.01c-0.14,0.01-0.23,0.1-0.23,0.24
		c-0.01,0.29-0.02,0.57-0.02,0.86c0,7.5,0,15.01,0,22.51c0,1.29,0.17,1.16-1.18,1.16c-2.08,0-4.15,0-6.23,0
		c-0.26,0-0.51,0-0.77-0.01c-0.14,0-0.24-0.08-0.25-0.23c-0.01-0.29-0.02-0.57-0.02-0.86c0-7.5,0-15.01,0-22.51
		c0-1.34,0.15-1.17-1.17-1.17c-2.49-0.01-4.98,0-7.47,0c-0.26,0-0.51,0-0.77-0.01c-0.18,0-0.3-0.09-0.31-0.28
		c-0.01-0.16-0.01-0.32-0.01-0.48c0-2.04,0-4.09,0-6.13c0-0.16,0-0.32,0.02-0.48c0.01-0.14,0.09-0.24,0.24-0.25
		c0.29-0.01,0.57-0.02,0.86-0.02C248.26,77.88,252.54,77.88,256.82,77.88z"/>
	<path class="st1" d="M303.37,99.95c0.18,0.12,0.32,0.2,0.44,0.29c1.63,1.23,3.26,2.46,4.89,3.69c0.13,0.1,0.25,0.2,0.36,0.31
		c0.06,0.06,0.11,0.15,0.04,0.26c-0.07,0.11-0.11,0.23-0.18,0.34c-1.62,2.87-4,4.79-7.19,5.59c-3.67,0.92-7.23,0.57-10.54-1.37
		c-2.96-1.73-5.05-4.22-5.95-7.55c-1.6-5.97,0.84-11.43,5.79-14.43c2.72-1.65,5.68-2.19,8.82-1.82c2.34,0.28,4.45,1.09,6.28,2.59
		c1.15,0.94,2.06,2.08,2.79,3.37c0.28,0.5,0.28,0.51-0.16,0.85c-1.34,1.03-2.69,2.05-4.03,3.08c-0.13,0.1-0.25,0.2-0.38,0.29
		c-0.31,0.22-0.58,0.62-0.94,0.62c-0.39-0.01-0.48-0.53-0.74-0.8c-0.33-0.35-0.63-0.73-0.98-1.04c-1.37-1.23-3-1.54-4.74-1.12
		c-1.94,0.46-3.03,1.81-3.42,3.72c-0.21,1.04-0.16,2.1,0.18,3.12c0.74,2.25,2.98,3.54,5.38,3.14c1.29-0.22,2.32-0.86,3.18-1.81
		C302.64,100.87,302.97,100.44,303.37,99.95z"/>
	<path class="st1" d="M372.08,79.85c1.09,0,2.17,0,3.26,0c0.22,0,0.45,0,0.67,0.02c0.14,0.01,0.23,0.1,0.24,0.25
		c0.01,0.25,0.02,0.51,0.02,0.76c0,1.47,0,2.94,0,4.41c0,0.41,0.04,0.45,0.44,0.45c1.72,0.01,3.45,0,5.17,0.01
		c0.99,0,0.95-0.11,0.95,0.91c0,1.79,0,3.58,0,5.36c0,0.19-0.01,0.38-0.02,0.57c-0.01,0.15-0.11,0.22-0.25,0.23
		c-0.22,0.01-0.45,0.01-0.67,0.01c-1.56,0-3.13,0-4.69,0c-0.22,0-0.45,0.01-0.67,0.02c-0.15,0.01-0.23,0.1-0.24,0.24
		c-0.01,0.19-0.02,0.38-0.02,0.57c0,2.11,0,4.22,0,6.32c0,0.38,0.02,0.77,0.09,1.14c0.18,0.96,0.75,1.6,1.69,1.89
		c0.64,0.2,1.31,0.31,1.98,0.31c0.83,0,1.66-0.03,2.49-0.06c0.22-0.01,0.45-0.03,0.67-0.03c0.27,0,0.36,0.08,0.38,0.31
		c0,0.03,0,0.06,0,0.1c0,2.08,0,4.15,0,6.23c0,0.39-0.06,0.46-0.4,0.53c-2.85,0.58-5.7,0.71-8.55,0.03
		c-0.34-0.08-0.68-0.19-1.01-0.31c-3.15-1.11-4.95-3.36-5.58-6.6c-0.17-0.85-0.22-1.71-0.22-2.57c0-2.33,0-4.66,0-6.99
		c0-0.22,0-0.45,0-0.67c-0.01-0.41-0.06-0.46-0.43-0.47c-0.41-0.01-0.83,0-1.25,0c-0.57,0-1.15,0-1.72-0.01
		c-0.23,0-0.35-0.12-0.35-0.36c0-0.35,0-0.7,0-1.05c0-1.56,0-3.13,0-4.69c0-0.22,0-0.45,0.01-0.67c0.01-0.19,0.12-0.3,0.3-0.3
		c0.77-0.01,1.53,0,2.3-0.01c1.3-0.01,1.13,0.14,1.14-1.1c0.01-1.34,0-2.68,0-4.02c0-0.77-0.02-0.77,0.81-0.77
		C369.78,79.86,370.93,79.85,372.08,79.85z"/>
	<path class="st4" d="M11.06,97.54c-0.04-0.26,0.09-0.49,0.17-0.72c1.5-4.54,3.01-9.08,4.51-13.63c0.34-1.02,0.25-0.83,1.17-0.91
		c2.73-0.25,5.34-0.91,7.8-2.13c1.09-0.54,2.1-1.2,3.03-2c1.71-1.48,2.89-3.31,3.55-5.47c0.09-0.3,0.15-0.61,0.35-0.93
		c0.41,2.4,0.19,4.69-0.68,6.91c-0.94,2.39-2.59,4.14-4.82,5.38c-1.52,0.84-3.16,1.36-4.86,1.7c-0.4,0.08-0.9,0.02-1.17,0.3
		c-0.27,0.28-0.23,0.77-0.3,1.18c-0.22,1.29-0.46,2.58-0.68,3.87c-0.04,0.25-0.06,0.51-0.09,0.76c-0.01,0.12,0.07,0.17,0.16,0.2
		c0.09,0.02,0.19,0.02,0.28,0.03c1.56,0.07,3.12,0.19,4.68,0.33c2.23,0.2,4.44,0.49,6.65,0.85c4.19,0.69,8.33,1.61,12.4,2.84
		c5.92,1.78,11.6,4.11,16.94,7.25c3.06,1.81,5.94,3.86,8.62,6.2c0.19,0.17,0.39,0.33,0.57,0.51c0.15,0.15,0.49,0.34,0.37,0.5
		c-0.2,0.27-0.44-0.05-0.62-0.17c-4.01-2.49-8.32-4.32-12.76-5.85c-4.83-1.67-9.78-2.91-14.8-3.88c-3.45-0.67-6.92-1.21-10.4-1.64
		c-2.98-0.36-5.97-0.64-8.96-0.86c-3.5-0.26-7.02-0.37-10.53-0.5C11.43,97.64,11.23,97.68,11.06,97.54z"/>
	<path class="st2" d="M273.02,97.98c0-3.8,0-7.59,0-11.39c0-0.87-0.02-0.85,0.83-0.85c2.27,0,4.53,0,6.8,0c0.16,0,0.32,0,0.48,0
		c0.24,0,0.33,0.15,0.34,0.36c0.01,0.16,0.01,0.32,0.01,0.48c0,7.63,0,15.25,0,22.88c0,0.9,0.05,0.84-0.81,0.84
		c-2.27,0-4.53,0-6.8,0c-0.19,0-0.38,0-0.57-0.02c-0.14-0.01-0.24-0.11-0.25-0.24c-0.02-0.25-0.02-0.51-0.02-0.77
		C273.01,105.51,273.02,101.75,273.02,97.98z"/>
	<path class="st2" d="M148.46,98.56c0,3.77,0,7.53,0,11.3c0,1.07,0.06,0.95-1,0.96c-2.17,0-4.34,0-6.51,0c-0.22,0-0.45,0-0.67-0.02
		c-0.14-0.01-0.24-0.1-0.25-0.24c-0.02-0.19-0.02-0.38-0.02-0.57c0-7.63,0-15.25,0-22.88c0-0.83-0.06-0.86,0.82-0.86
		c2.3,0.01,4.6,0,6.89,0c0.16,0,0.32,0,0.48,0.01c0.15,0.01,0.23,0.09,0.24,0.24c0.01,0.29,0.02,0.57,0.02,0.86
		C148.46,91.09,148.46,94.83,148.46,98.56z"/>
	<path class="st5" d="M283.12,77.26c0.04,2.92-2.25,5.9-5.88,5.91c-3.46,0.01-5.9-2.79-5.89-5.91c0.01-3.13,2.48-5.84,5.84-5.87
		C280.71,71.37,283.14,74.25,283.12,77.26z"/>
	<path class="st6" d="M190.16,82.61c1.08-3.46,2.1-6.77,3.15-10.13c3.37,0,6.71,0,10.06,0c0.19,0.43,0.09,0.85,0.11,1.26
		c0.01,0.17-0.06,0.31-0.17,0.44c-0.1,0.12-0.21,0.24-0.31,0.37c-2.08,2.49-4.17,4.99-6.25,7.48c-0.08,0.1-0.17,0.19-0.24,0.3
		c-0.17,0.22-0.38,0.3-0.66,0.3c-1.12-0.01-2.23,0-3.35,0C191.76,82.61,191.03,82.61,190.16,82.61z"/>
	<path class="st6" d="M144.23,82.49c-1.89,0.05-3.96-0.97-4.83-3.06c-1.15-2.79,0.44-5.95,3.36-6.72c1.15-0.3,2.27-0.25,3.38,0.18
		c2.02,0.77,3.32,2.7,3.24,4.83c-0.08,2.05-1.48,3.89-3.52,4.53C145.32,82.42,144.76,82.52,144.23,82.49z"/>
	<path class="st7" d="M108.6,90.17c0.06-1.34,0.12-2.67,0.19-4.01c0.21-4.62,0.32-9.25,0.22-13.88c-0.04-2.07-0.1-4.15-0.15-6.22
		c-0.01-0.32,0.01-0.62,0.19-0.92c0.91-1.5,1.79-3.02,2.69-4.52c0.05-0.08,0.12-0.14,0.17-0.21c0.18,0.05,0.16,0.19,0.16,0.31
		c-0.07,2.74-0.17,5.49-0.39,8.22c-0.15,1.84-0.28,3.69-0.47,5.53c-0.24,2.25-0.51,4.5-0.81,6.74c-0.36,2.59-0.78,5.17-1.27,7.74
		c-0.08,0.41-0.17,0.81-0.26,1.21C108.78,90.17,108.69,90.17,108.6,90.17z"/>
	<path class="st8" d="M226.51,128.95c-0.29,0.12-0.58,0.27-0.88,0.36c-1.59,0.44-3.14-0.66-3.27-2.3c-0.1-1.29,0.48-2.35,1.57-2.79
		c0.75-0.3,1.49-0.27,2.22,0.07c0.2,0.09,0.38,0.23,0.56,0.34c0.16-0.14,0.08-0.42,0.29-0.49c0.24-0.08,0.5-0.08,0.75,0
		c0.07,0.02,0.12,0.13,0.15,0.21c0.03,0.09,0.02,0.19,0.02,0.28c0,1.43,0,2.87,0,4.3c0,0.32-0.05,0.63-0.14,0.94
		c-0.23,0.8-0.75,1.35-1.53,1.56c-1.2,0.33-2.34,0.14-3.34-0.64c-0.19-0.15-0.22-0.28-0.06-0.48c0.13-0.17,0.22-0.39,0.49-0.47
		c0.2,0.12,0.41,0.25,0.63,0.37c0.4,0.22,0.82,0.34,1.28,0.32c0.9-0.04,1.31-0.45,1.46-1.42c0-0.08,0.03-0.19-0.01-0.24
		C226.63,128.8,226.57,128.9,226.51,128.95z M225.16,125.05c-0.92,0-1.62,0.7-1.63,1.64c-0.01,0.99,0.71,1.72,1.67,1.69
		c0.93-0.03,1.57-0.73,1.57-1.69C226.76,125.73,226.1,125.05,225.16,125.05z"/>
	<path class="st9" d="M161.25,125.52c0.14,0.1,0.26,0.19,0.39,0.28c0.75,0.53,0.93,1.28,0.75,2.11c-0.18,0.83-0.76,1.3-1.57,1.5
		c-0.12,0.03-0.25,0.05-0.38,0.05c-0.96,0.01-1.91,0.02-2.87,0.02c-0.16,0-0.31-0.03-0.44-0.05c-0.14-0.21-0.1-0.4-0.1-0.59
		c0-1.95,0-3.89,0-5.84c0-0.13,0-0.26,0.01-0.38c0.01-0.19,0.1-0.3,0.29-0.3c0.89,0,1.79-0.07,2.68,0.03
		c1.62,0.18,2.14,1.8,1.46,2.83C161.4,125.28,161.34,125.39,161.25,125.52z M159.29,128.47c0,0,0-0.01,0-0.01
		c0.32,0,0.64,0.03,0.95-0.01c0.64-0.06,1.01-0.45,1.03-1.04c0.02-0.63-0.27-1.01-0.93-1.13c-0.63-0.12-1.27-0.06-1.9-0.04
		c-0.14,0.01-0.24,0.11-0.24,0.24c-0.01,0.48-0.01,0.95-0.02,1.43c-0.01,0.48,0.06,0.56,0.54,0.55
		C158.91,128.46,159.1,128.47,159.29,128.47z M158.18,124.23c0.01,1.1-0.12,0.99,1.03,0.99c0.22,0,0.45,0,0.66-0.05
		c0.42-0.09,0.69-0.47,0.69-0.9c0-0.41-0.21-0.7-0.62-0.86c-0.27-0.11-0.56-0.09-0.84-0.09
		C158.12,123.31,158.18,123.24,158.18,124.23z"/>
	<path class="st9" d="M145.5,124.62c0-1.03,0-1.95,0-2.86c0-0.39,0.04-0.42,0.45-0.42c0.22,0,0.45-0.05,0.68,0.11
		c0.01,0.16,0.03,0.35,0.03,0.54c0,2.26,0,4.52,0,6.78c0,0.16-0.01,0.32-0.01,0.48c0,0.11-0.07,0.2-0.16,0.21
		c-0.22,0.03-0.44,0.02-0.66,0.03c-0.3,0.01-0.22-0.35-0.44-0.45c-0.53,0.43-1.14,0.65-1.84,0.61c-0.6-0.03-1.12-0.24-1.56-0.63
		c-1.23-1.08-1.23-3.27,0.01-4.35c0.76-0.66,1.65-0.78,2.59-0.46C144.87,124.28,145.11,124.43,145.5,124.62z M145.52,126.87
		c0.01-0.81-0.36-1.42-1.02-1.67c-0.87-0.33-1.76,0.07-2.1,0.95c-0.36,0.93,0.06,1.98,0.92,2.32
		C144.3,128.86,145.52,128.23,145.52,126.87z"/>
	<path class="st8" d="M320.83,124.03c-0.27-0.22-0.45-0.4-0.66-0.55c-0.42-0.29-0.9-0.32-1.38-0.18c-0.62,0.19-0.79,0.96-0.29,1.37
		c0.27,0.22,0.6,0.36,0.91,0.52c0.51,0.26,1.05,0.46,1.51,0.81c0.48,0.37,0.77,0.83,0.79,1.46c0.02,1.02-0.57,1.83-1.61,2.08
		c-1.26,0.3-2.53-0.09-3.3-1.18c-0.16-0.22-0.16-0.32,0.05-0.48c0.17-0.13,0.31-0.32,0.59-0.35c0.21,0.2,0.42,0.44,0.67,0.63
		c0.54,0.41,1.14,0.56,1.8,0.3c0.35-0.14,0.58-0.38,0.61-0.78c0.03-0.35-0.09-0.63-0.39-0.81c-0.3-0.18-0.62-0.33-0.93-0.5
		c-0.42-0.22-0.86-0.41-1.27-0.67c-0.68-0.43-1.01-1.06-0.88-1.87c0.12-0.81,0.63-1.3,1.39-1.54c1.11-0.35,2.07-0.08,2.88,0.76
		c0.28,0.29,0.26,0.41-0.07,0.69C321.12,123.84,320.99,123.92,320.83,124.03z"/>
	<path class="st10" d="M99.02,127.52c0.13,0.15,0.28,0.41,0.5,0.59c0.55,0.46,1.18,0.62,1.87,0.35c0.35-0.14,0.57-0.4,0.61-0.79
		c0.04-0.35-0.12-0.63-0.41-0.81c-0.33-0.2-0.68-0.35-1.01-0.53c-0.42-0.23-0.86-0.43-1.25-0.69c-0.65-0.43-0.9-1.05-0.8-1.82
		c0.1-0.74,0.56-1.2,1.21-1.48c1.09-0.46,2.36-0.13,3.12,0.78c0.19,0.22,0.17,0.35-0.07,0.55c-0.15,0.12-0.31,0.22-0.48,0.35
		c-0.2-0.17-0.38-0.35-0.58-0.5c-0.41-0.3-0.88-0.36-1.37-0.25c-0.34,0.08-0.58,0.27-0.64,0.63c-0.06,0.34,0.03,0.65,0.33,0.83
		c0.33,0.2,0.67,0.36,1.01,0.54c0.42,0.22,0.86,0.42,1.26,0.68c0.68,0.44,0.96,1.09,0.85,1.89c-0.11,0.76-0.55,1.27-1.24,1.57
		c-0.98,0.43-2.68,0.33-3.66-1.06c-0.14-0.2-0.13-0.33,0.07-0.49C98.5,127.74,98.65,127.55,99.02,127.52z"/>
	<path class="st10" d="M239.49,128.06c0.74,0.64,0.67,0.8-0.12,1.23c-1.42,0.79-3.87,0.31-4.28-2.04c-0.18-1.06,0.19-1.96,1.02-2.63
		c0.84-0.68,1.8-0.79,2.79-0.37c0.97,0.4,1.54,1.44,1.41,2.49c-0.05,0.41-0.17,0.45-0.48,0.45c-0.96,0-1.91,0-2.87,0
		c-0.16,0-0.32,0.01-0.47,0.04c-0.1,0.02-0.15,0.13-0.14,0.22c0.02,0.12,0.05,0.25,0.12,0.36c0.39,0.63,1.15,0.93,1.91,0.76
		C238.8,128.48,239.14,128.25,239.49,128.06z M237.7,126.3C237.7,126.3,237.7,126.3,237.7,126.3c0.38,0.01,0.76,0.01,1.14,0
		c0.22-0.01,0.32-0.18,0.26-0.39c-0.03-0.09-0.05-0.19-0.1-0.27c-0.33-0.5-0.81-0.69-1.39-0.63c-0.58,0.06-1.1,0.49-1.24,1.02
		c-0.04,0.14,0.04,0.26,0.19,0.26C236.94,126.3,237.32,126.3,237.7,126.3z"/>
	<path class="st9" d="M205.44,127.19c-0.51,0-1.02,0-1.53,0c-0.46,0-0.44,0.29-0.28,0.57c0.36,0.64,1.13,0.98,1.89,0.81
		c0.28-0.06,0.55-0.17,0.79-0.32c0.42-0.26,0.46-0.26,0.8,0.27c0.1,0.16,0.11,0.29-0.03,0.42c-1.39,1.23-4.17,0.9-4.75-1.44
		c-0.28-1.11,0.03-2.1,0.92-2.84c0.83-0.69,1.78-0.82,2.78-0.43c0.93,0.36,1.67,1.35,1.41,2.74c-0.03,0.15-0.14,0.21-0.27,0.21
		C206.59,127.18,206.02,127.18,205.44,127.19C205.44,127.18,205.44,127.18,205.44,127.19z M204.85,126.3
		C204.85,126.31,204.85,126.31,204.85,126.3c0.35,0.01,0.7,0.01,1.05,0c0.37-0.01,0.49-0.23,0.32-0.56
		c-0.28-0.55-0.74-0.76-1.33-0.74c-0.63,0.02-1.15,0.42-1.36,1.03c-0.05,0.15,0.02,0.26,0.17,0.27
		C204.09,126.31,204.47,126.3,204.85,126.3z"/>
	<path class="st10" d="M293.33,128.06c0.74,0.64,0.68,0.79-0.1,1.23c-1.42,0.79-3.87,0.32-4.29-2.03c-0.32-1.76,1.23-3.69,3.45-3.15
		c1.13,0.27,1.87,1.35,1.79,2.52c-0.03,0.45-0.13,0.55-0.58,0.55c-0.8,0.01-1.6,0-2.39,0c-0.22,0-0.45-0.01-0.67,0.01
		c-0.32,0.02-0.42,0.23-0.26,0.52c0.35,0.65,1.11,1.01,1.86,0.87c0.25-0.05,0.49-0.15,0.72-0.25
		C293.03,128.26,293.18,128.15,293.33,128.06z M291.55,126.3C291.55,126.3,291.55,126.3,291.55,126.3c0.35,0.01,0.7,0.02,1.05,0.01
		c0.34-0.01,0.45-0.19,0.32-0.49c-0.01-0.03-0.02-0.06-0.03-0.09c-0.26-0.52-0.8-0.78-1.43-0.71c-0.58,0.07-1.1,0.49-1.23,1.03
		c-0.03,0.14,0.04,0.25,0.19,0.26C290.79,126.3,291.17,126.3,291.55,126.3z"/>
	<path class="st9" d="M327.02,128.06c0.3,0.16,0.41,0.42,0.54,0.67c-0.87,0.9-2.07,1.16-3.23,0.68c-1.1-0.45-1.76-1.49-1.73-2.72
		c0.03-1.15,0.77-2.14,1.87-2.53c0.56-0.2,1.13-0.2,1.69-0.03c1.04,0.32,1.68,1.19,1.68,2.3c0,0.84-0.08,0.74-0.75,0.74
		c-0.93,0-1.85,0.01-2.78,0c-0.48,0-0.53,0.25-0.31,0.62c0.4,0.66,1.2,0.94,2.01,0.74C326.39,128.45,326.7,128.23,327.02,128.06z
		 M323.85,126.31c0.84,0,1.61,0.01,2.37,0c0.42,0,0.54-0.24,0.34-0.62c-0.22-0.39-0.55-0.61-0.99-0.68
		C324.76,124.89,324.17,125.3,323.85,126.31z"/>
	<path class="st9" d="M174.06,127.19c-0.54,0-1.08-0.01-1.63,0c-0.21,0-0.31,0.21-0.22,0.41c0.33,0.71,1.1,1.12,1.9,0.98
		c0.31-0.05,0.62-0.16,0.89-0.34c0.13-0.08,0.26-0.24,0.42-0.14c0.22,0.14,0.36,0.36,0.42,0.61c0.02,0.07-0.07,0.18-0.13,0.24
		c-0.82,0.72-2.22,0.89-3.24,0.37c-1.08-0.54-1.58-1.46-1.56-2.64c0.02-1.16,0.77-2.16,1.88-2.52c1.91-0.62,3.54,0.74,3.38,2.56
		c-0.03,0.35-0.12,0.44-0.48,0.45c-0.54,0.01-1.08,0-1.63,0C174.06,127.19,174.06,127.19,174.06,127.19z M173.57,126.31
		C173.57,126.31,173.57,126.31,173.57,126.31c0.38,0,0.76,0.01,1.14,0c0.24-0.01,0.33-0.16,0.26-0.38
		c-0.15-0.46-0.46-0.75-0.92-0.88c-0.76-0.21-1.54,0.2-1.85,0.95c-0.06,0.15,0.05,0.31,0.23,0.31
		C172.81,126.31,173.19,126.31,173.57,126.31z"/>
	<path class="st9" d="M354.77,127.19c-0.48,0-0.96,0-1.44,0c-0.15,0-0.33-0.03-0.4,0.16c-0.07,0.17,0.03,0.31,0.11,0.44
		c0.41,0.64,1.14,0.95,1.9,0.78c0.31-0.07,0.6-0.2,0.88-0.37c0.29-0.18,0.33-0.15,0.54,0.12c0.06,0.08,0.11,0.16,0.16,0.24
		c0.11,0.17,0.04,0.32-0.09,0.42c-1.01,0.76-2.11,0.87-3.24,0.35c-1.05-0.48-1.66-1.59-1.54-2.74c0.12-1.19,0.74-2.04,1.88-2.41
		c1.89-0.61,3.47,0.72,3.37,2.48c-0.03,0.44-0.1,0.52-0.59,0.53C355.79,127.19,355.28,127.18,354.77,127.19
		C354.77,127.18,354.77,127.19,354.77,127.19z M354.2,126.31C354.2,126.31,354.2,126.31,354.2,126.31c0.41,0,0.82,0,1.23,0
		c0.24-0.01,0.32-0.16,0.25-0.38c-0.15-0.46-0.47-0.75-0.92-0.87c-0.76-0.21-1.54,0.2-1.84,0.96c-0.06,0.15,0.05,0.3,0.23,0.31
		C353.51,126.31,353.85,126.31,354.2,126.31z"/>
	<path class="st9" d="M298.06,127.19c-0.54,0-1.08-0.01-1.63,0c-0.22,0-0.32,0.21-0.22,0.41c0.33,0.71,1.1,1.12,1.89,0.99
		c0.31-0.05,0.62-0.16,0.89-0.33c0.13-0.08,0.25-0.24,0.42-0.14c0.23,0.13,0.36,0.36,0.42,0.61c0.02,0.07-0.06,0.18-0.13,0.24
		c-0.81,0.72-2.21,0.89-3.24,0.38c-1.08-0.54-1.58-1.46-1.56-2.64c0.02-1.16,0.76-2.17,1.87-2.52c1.97-0.64,3.6,0.82,3.37,2.65
		c-0.03,0.22-0.14,0.35-0.37,0.36c-0.57,0.01-1.15,0-1.72,0C298.06,127.18,298.06,127.19,298.06,127.19z M297.49,126.29
		C297.49,126.3,297.49,126.3,297.49,126.29c0.41,0.01,0.82,0.02,1.23,0.01c0.23-0.01,0.32-0.17,0.23-0.39
		c-0.23-0.6-0.67-0.9-1.3-0.91c-0.67,0-1.23,0.38-1.45,1.01c-0.04,0.11-0.03,0.27,0.15,0.28
		C296.73,126.3,297.11,126.29,297.49,126.29z"/>
	<path class="st11" d="M198.52,127.1c-0.3,0.14-0.63,0.08-0.94,0.08c-0.86,0.01-1.72,0-2.58,0.01c-0.33,0-0.42,0.2-0.25,0.51
		c0.36,0.66,1.1,1.02,1.85,0.88c0.25-0.05,0.49-0.14,0.72-0.25c0.62-0.28,0.61-0.29,0.98,0.3c0.02,0.03,0.03,0.06,0.04,0.09
		c-0.81,0.88-1.98,1.16-3.13,0.71c-1.12-0.43-1.72-1.26-1.81-2.47c-0.11-1.56,1.02-2.7,2.23-2.91
		C197.53,123.73,198.9,125.16,198.52,127.1z M195.99,126.31C195.99,126.31,195.99,126.31,195.99,126.31c0.38,0,0.76,0,1.14-0.01
		c0.27-0.01,0.39-0.19,0.29-0.44c-0.41-1.02-1.76-1.2-2.49-0.31c-0.15,0.18-0.39,0.4-0.23,0.66c0.1,0.17,0.35,0.08,0.53,0.09
		C195.49,126.32,195.74,126.31,195.99,126.31z"/>
	<path class="st11" d="M184.21,127.19c-0.54,0-1.08-0.01-1.63,0c-0.39,0.01-0.49,0.21-0.28,0.56c0.38,0.65,1.13,0.98,1.88,0.83
		c0.31-0.06,0.6-0.19,0.88-0.35c0.35-0.21,0.39-0.19,0.6,0.13c0.05,0.08,0.1,0.16,0.15,0.24c0.09,0.13,0.03,0.25-0.07,0.33
		c-0.92,0.76-1.96,0.9-3.05,0.49c-1.04-0.39-1.62-1.18-1.75-2.3c-0.21-1.8,1.3-3.31,3.13-3.07c1.12,0.15,2.02,1.05,2.08,2.16
		c0.06,1.04,0.02,0.97-0.9,0.97C184.91,127.18,184.56,127.18,184.21,127.19C184.21,127.18,184.21,127.19,184.21,127.19z M183.64,125
		c-0.67,0.01-1.21,0.4-1.43,1.04c-0.05,0.15,0.03,0.26,0.18,0.26c0.79,0.01,1.58,0.01,2.37,0c0.16,0,0.27-0.17,0.23-0.33
		C184.82,125.36,184.32,124.99,183.64,125z"/>
	<path class="st11" d="M152.76,128.81c-1.05,0.89-2.17,1.07-3.35,0.56c-1.06-0.46-1.6-1.32-1.63-2.49
		c-0.03-1.17,0.49-2.04,1.52-2.56c0.95-0.48,1.93-0.44,2.8,0.23c0.84,0.65,1.08,1.53,0.84,2.55c-0.4,0.15-0.78,0.08-1.16,0.08
		c-0.77,0.01-1.53,0-2.3,0.01c-0.47,0-0.54,0.21-0.3,0.61c0.37,0.61,1.1,0.93,1.81,0.79c0.25-0.05,0.49-0.14,0.72-0.25
		c0.61-0.28,0.61-0.29,0.98,0.31C152.7,128.67,152.71,128.71,152.76,128.81z M150.37,125c-0.52,0.03-0.98,0.32-1.26,0.88
		c-0.14,0.28-0.07,0.42,0.23,0.43c0.66,0.01,1.33,0.01,1.99,0c0.17,0,0.4,0.07,0.48-0.17c0.07-0.2-0.04-0.37-0.14-0.53
		C151.39,125.17,150.98,124.99,150.37,125z"/>
	<path class="st11" d="M362.58,128.73c-0.87,0.91-2.1,1.16-3.25,0.68c-1.1-0.46-1.74-1.48-1.7-2.74c0.04-1.15,0.77-2.15,1.89-2.51
		c1.89-0.6,3.49,0.76,3.35,2.5c-0.04,0.44-0.08,0.51-0.5,0.52c-0.57,0.01-1.15,0-1.72,0.01c-0.51,0-1.02,0-1.53,0.02
		c-0.16,0-0.26,0.19-0.2,0.34c0.31,0.77,1.09,1.2,1.94,1.04c0.35-0.06,0.66-0.21,0.97-0.39c0.28-0.17,0.32-0.15,0.53,0.14
		C362.44,128.46,362.51,128.6,362.58,128.73z M360.26,126.31c0-0.01,0-0.01,0-0.02c0.41,0,0.82,0.01,1.23,0
		c0.15,0,0.2-0.13,0.19-0.27c-0.01-0.09-0.03-0.19-0.07-0.27c-0.52-1.01-1.91-1.03-2.57-0.02c-0.08,0.13-0.19,0.27-0.13,0.44
		c0.07,0.2,0.26,0.13,0.4,0.14C359.63,126.32,359.95,126.31,360.26,126.31z"/>
	<path class="st11" d="M306.98,127.2c-0.57,0-1.15,0-1.72,0c-0.16,0-0.26,0.19-0.19,0.35c0.31,0.77,1.09,1.19,1.94,1.03
		c0.31-0.06,0.61-0.18,0.89-0.34c0.39-0.22,0.42-0.2,0.66,0.18c0.03,0.05,0.06,0.11,0.1,0.16c0.09,0.13,0.06,0.24-0.04,0.33
		c-0.84,0.74-1.82,0.89-2.86,0.58c-1.07-0.32-1.74-1.06-1.93-2.16c-0.24-1.42,0.46-2.67,1.76-3.14c1.8-0.65,3.63,0.6,3.42,2.57
		c-0.03,0.31-0.1,0.41-0.4,0.41c-0.54,0.01-1.08,0-1.63,0C306.98,127.19,306.98,127.19,306.98,127.2z M306.49,125
		c-0.67,0.01-1.21,0.4-1.43,1.04c-0.05,0.15,0.03,0.26,0.18,0.26c0.79,0.01,1.58,0.01,2.37,0c0.16,0,0.27-0.17,0.23-0.33
		C307.67,125.36,307.16,124.99,306.49,125z"/>
	<path class="st8" d="M266.03,127.61c0,0.51,0,1.02,0,1.53c0,0.25-0.14,0.34-0.35,0.35c-0.22,0.01-0.53,0.1-0.64-0.07
		c-0.21-0.3-0.36-0.22-0.6-0.08c-0.51,0.32-1.09,0.36-1.66,0.27c-0.64-0.1-1.14-0.4-1.35-1.05c-0.24-0.72,0.04-1.43,0.71-1.78
		c0.31-0.16,0.65-0.24,1.01-0.25c0.45,0,0.89,0,1.34-0.01c0.27-0.01,0.38-0.17,0.35-0.44c-0.08-0.72-0.55-1.04-1.26-1
		c-0.43,0.02-0.78,0.23-1.11,0.51c-0.27,0.23-0.32,0.21-0.55-0.02c-0.07-0.07-0.14-0.13-0.2-0.21c-0.11-0.14-0.11-0.28,0.01-0.43
		c0.89-1.08,2.46-1.06,3.23-0.65c0.51,0.27,0.81,0.69,0.97,1.24c0.14,0.5,0.1,1.01,0.11,1.52
		C266.04,127.22,266.03,127.42,266.03,127.61C266.03,127.61,266.03,127.61,266.03,127.61z M264,127.33c-0.31,0.02-0.66-0.04-1,0.08
		c-0.26,0.09-0.43,0.27-0.46,0.55c-0.03,0.29,0.14,0.57,0.42,0.68c0.58,0.24,1.36,0.01,1.69-0.51c0.13-0.21,0.29-0.47,0.13-0.71
		c-0.11-0.16-0.35-0.08-0.54-0.09C264.16,127.33,264.1,127.33,264,127.33z"/>
	<path class="st9" d="M109.73,126.82c0.07,1.58-1.39,2.84-2.87,2.83c-1.33-0.01-2.8-1.15-2.8-2.81c-0.01-1.7,1.48-2.84,2.88-2.82
		C108.33,124.03,109.79,125.23,109.73,126.82z M108.54,126.83c0-0.98-0.73-1.78-1.65-1.76c-1.08,0.03-1.66,0.88-1.66,1.74
		c-0.01,0.85,0.53,1.71,1.64,1.75C107.81,128.6,108.54,127.81,108.54,126.83z"/>
	<path class="st9" d="M128.62,129.63c-1.59,0.08-2.84-1.35-2.87-2.73c-0.04-1.68,1.42-2.88,2.82-2.89c1.26-0.01,2.88,0.97,2.87,2.84
		C131.43,128.4,130.19,129.62,128.62,129.63z M130.24,126.85c0.01-0.99-0.71-1.76-1.63-1.78c-0.92-0.01-1.66,0.76-1.67,1.74
		c-0.01,0.98,0.7,1.78,1.63,1.76C129.64,128.55,130.26,127.73,130.24,126.85z"/>
	<path class="st9" d="M280.59,126.46c0.11-0.46,0.06-0.86-0.31-1.15c-0.41-0.32-0.88-0.31-1.36-0.14c-0.34,0.12-0.57,0.39-0.86,0.57
		c-0.07-0.03-0.14-0.04-0.19-0.07c-0.58-0.49-0.61-0.55,0.02-1.07c0.75-0.61,1.63-0.71,2.53-0.45c0.86,0.25,1.33,0.89,1.37,1.77
		c0.05,1.08,0.02,2.17,0.02,3.25c0,0.18-0.08,0.31-0.28,0.31c-0.3,0-0.64,0.11-0.86-0.24c-0.07-0.12-0.23-0.02-0.33,0.05
		c-0.5,0.34-1.07,0.38-1.65,0.34c-0.33-0.03-0.62-0.14-0.89-0.32c-0.89-0.61-0.85-1.94,0.08-2.49c0.37-0.21,0.77-0.28,1.19-0.29
		C279.58,126.51,280.09,126.58,280.59,126.46z M280.58,127.34c-0.48,0-0.96-0.01-1.43,0.01c-0.15,0.01-0.31,0.06-0.46,0.12
		c-0.45,0.21-0.49,0.83-0.07,1.09c0.45,0.28,0.93,0.24,1.37,0C280.43,128.31,280.72,127.96,280.58,127.34z"/>
	<path class="st8" d="M287.91,129.4c-1.16,0.13-1.16,0.13-1.16-0.89c0-0.61,0-1.21,0-1.82c0-0.19,0.01-0.38-0.02-0.57
		c-0.09-0.61-0.5-1-1.07-1.05c-0.6-0.05-1.12,0.33-1.25,0.95c-0.05,0.25-0.06,0.5-0.06,0.76c-0.01,0.8,0,1.59-0.01,2.39
		c0,0.19-0.1,0.29-0.28,0.31c-0.16,0.01-0.32,0.01-0.48,0c-0.32-0.01-0.4-0.08-0.4-0.39c-0.01-0.64,0-1.27,0-1.91
		c0-0.89,0-1.78,0-2.68c0-0.3,0.1-0.4,0.4-0.4c0.27,0,0.59-0.1,0.73,0.27c0.06,0.14,0.17,0.06,0.23,0.02
		c0.42-0.25,0.87-0.38,1.36-0.37c1.04,0.02,1.74,0.59,1.95,1.62c0.03,0.12,0.04,0.25,0.04,0.38c0.01,0.8,0.01,1.59,0.01,2.39
		C287.91,128.73,287.91,129.04,287.91,129.4z"/>
	<path class="st8" d="M250.33,129.38c0-0.9,0-1.79,0-2.68c0-0.25,0-0.51-0.06-0.76c-0.13-0.54-0.58-0.87-1.12-0.87
		c-0.54,0-0.97,0.33-1.14,0.85c-0.09,0.28-0.08,0.57-0.08,0.85c0,0.8,0,1.59,0,2.39c0,0.19-0.09,0.3-0.28,0.31
		c-0.16,0.01-0.32,0.01-0.48,0.01c-0.32-0.01-0.4-0.08-0.41-0.39c-0.01-0.29,0-0.57,0-0.86c0-1.18,0-2.36,0-3.54
		c0-0.55,0.07-0.61,0.6-0.6c0.23,0,0.45,0,0.54,0.27c0.05,0.15,0.17,0.06,0.23,0.02c0.42-0.25,0.87-0.38,1.36-0.37
		c1.04,0.02,1.74,0.59,1.95,1.61c0.02,0.09,0.04,0.19,0.04,0.28c0,1.08,0.01,2.17,0.01,3.25c0,0.19-0.1,0.3-0.29,0.3
		C250.96,129.48,250.7,129.53,250.33,129.38z"/>
	<path class="st8" d="M132.54,126.85c0-0.8,0-1.59,0-2.39c0-0.23,0.13-0.37,0.35-0.35c0.27,0.01,0.59-0.13,0.76,0.22
		c0.05,0.1,0.12,0.13,0.22,0.09c0.12-0.05,0.23-0.12,0.34-0.17c0.41-0.21,0.86-0.24,1.3-0.2c0.81,0.08,1.35,0.5,1.62,1.27
		c0.11,0.31,0.14,0.62,0.14,0.94c0,0.89,0,1.78,0,2.68c0,0.1,0,0.19-0.01,0.29c-0.02,0.21-0.12,0.26-0.52,0.27
		c-0.48,0.01-0.61-0.04-0.62-0.25c-0.02-0.32-0.01-0.64-0.01-0.95c0-0.7,0.04-1.4-0.02-2.1c-0.07-0.89-0.87-1.33-1.66-0.98
		c-0.31,0.14-0.51,0.36-0.62,0.68c-0.09,0.28-0.09,0.56-0.09,0.85c0,0.8,0,1.59,0,2.39c0,0.23-0.09,0.36-0.33,0.36
		c-0.03,0-0.06,0-0.1,0c-0.85,0.02-0.74-0.07-0.75-0.72C132.54,128.13,132.54,127.49,132.54,126.85
		C132.54,126.85,132.54,126.85,132.54,126.85z"/>
	<path class="st10" d="M272.03,129.33c-0.2,0.17-0.37,0.15-0.52,0.15c-0.62,0-0.63-0.01-0.64-0.64c-0.01-0.7,0-1.4,0-2.1
		c0-0.22,0.01-0.45-0.02-0.67c-0.08-0.59-0.52-0.98-1.1-1c-0.61-0.02-1.13,0.39-1.2,1c-0.05,0.41-0.03,0.83-0.03,1.24
		c0,0.61-0.01,1.21,0,1.82c0,0.25-0.14,0.34-0.35,0.35c-0.16,0.01-0.32,0-0.48,0c-0.23,0-0.34-0.12-0.34-0.35
		c0.01-1.56,0-3.12,0.01-4.69c0-0.09,0.05-0.18,0.09-0.3c0.36,0.02,0.74-0.22,1.03,0.23c0.07,0.11,0.23,0.04,0.34-0.03
		c0.43-0.25,0.89-0.33,1.38-0.31c0.98,0.06,1.68,0.67,1.82,1.64c0.04,0.28,0.03,0.57,0.03,0.86
		C272.04,127.49,272.03,128.44,272.03,129.33z"/>
	<path class="st10" d="M229.29,129.36c0-1.64,0-3.26,0-4.89c0-0.23,0.1-0.38,0.34-0.36c0.27,0.01,0.59-0.13,0.77,0.22
		c0.08,0.15,0.19,0.13,0.31,0.05c0.45-0.29,0.94-0.38,1.46-0.34c0.88,0.06,1.5,0.56,1.73,1.4c0.06,0.21,0.11,0.44,0.11,0.66
		c0.01,1.02,0.01,2.04,0.01,3.07c0,0.19-0.11,0.29-0.28,0.32c-0.16,0.02-0.32,0.01-0.48,0.01c-0.33-0.01-0.4-0.06-0.4-0.38
		c-0.01-0.77,0-1.53-0.01-2.3c0-0.29-0.01-0.58-0.08-0.85c-0.12-0.52-0.5-0.83-1.01-0.87c-0.48-0.04-0.95,0.24-1.17,0.67
		c-0.14,0.27-0.14,0.55-0.14,0.84c0,0.92,0,1.85,0,2.79C230.04,129.52,229.68,129.54,229.29,129.36z"/>
	<path class="st10" d="M208.56,126.76c0-0.77,0-1.53,0-2.3c0-0.22,0.1-0.36,0.34-0.36c0.28,0.01,0.58-0.08,0.77,0.24
		c0.08,0.14,0.21,0.09,0.33,0.01c0.42-0.27,0.88-0.35,1.37-0.32c0.99,0.05,1.68,0.65,1.83,1.62c0.02,0.13,0.04,0.25,0.04,0.38
		c0,1.02,0.01,2.04,0,3.06c0,0.32-0.07,0.38-0.4,0.39c-0.19,0-0.38-0.01-0.57-0.04c-0.09-0.01-0.17-0.08-0.18-0.19
		c-0.01-0.13-0.02-0.25-0.02-0.38c0-0.7,0-1.4,0-2.1c0-0.22,0.01-0.45-0.02-0.67c-0.07-0.61-0.49-1-1.07-1.03
		c-0.59-0.03-1.14,0.38-1.24,0.97c-0.04,0.25-0.03,0.51-0.03,0.76c0,0.77-0.01,1.53,0,2.3c0,0.23-0.09,0.36-0.32,0.37
		c-0.03,0-0.06,0-0.1,0c-0.72,0.04-0.74,0.02-0.74-0.72C208.55,128.09,208.55,127.43,208.56,126.76
		C208.55,126.76,208.56,126.76,208.56,126.76z"/>
	<path class="st10" d="M334.7,125.98c0-0.48-0.01-0.96,0-1.43c0.01-0.3,0.09-0.37,0.4-0.39c0.03,0,0.06,0,0.1,0
		c0.6-0.02,0.64,0.02,0.65,0.63c0.01,0.76,0,1.53,0.01,2.29c0,0.22,0.01,0.45,0.07,0.66c0.15,0.52,0.61,0.84,1.15,0.84
		c0.55-0.01,0.98-0.33,1.1-0.88c0.06-0.28,0.07-0.57,0.07-0.85c0.01-0.76,0-1.53,0.01-2.29c0-0.32,0.08-0.38,0.4-0.39
		c0.16-0.01,0.32-0.01,0.48,0.01c0.17,0.02,0.28,0.13,0.28,0.32c0,0.06,0,0.13,0,0.19c0,0.8,0,1.59,0,2.39
		c0,0.16-0.01,0.32-0.03,0.48c-0.19,1.59-1.49,2.34-2.97,2.02c-1-0.21-1.65-1.05-1.72-2.15C334.68,126.94,334.7,126.46,334.7,125.98
		C334.7,125.98,334.7,125.98,334.7,125.98z"/>
	<path class="st10" d="M113.35,125.93c0-0.41-0.01-0.83,0-1.24c0.01-0.49,0.06-0.53,0.55-0.54c0.06,0,0.13,0,0.19,0
		c0.33,0.02,0.4,0.07,0.4,0.39c0.01,0.8,0,1.59,0.01,2.39c0,0.22-0.01,0.45,0.03,0.67c0.11,0.57,0.57,0.95,1.15,0.96
		c0.58,0.01,1.03-0.33,1.16-0.93c0.05-0.25,0.06-0.5,0.06-0.76c0.01-0.76,0-1.53,0.01-2.29c0-0.37,0.07-0.42,0.46-0.43
		c0.1,0,0.19,0,0.29,0c0.32,0.02,0.42,0.09,0.42,0.38c0.01,0.92,0.03,1.85-0.01,2.77c-0.04,0.95-0.43,1.72-1.35,2.13
		c-1.56,0.68-3.21-0.28-3.35-1.98C113.32,126.95,113.35,126.44,113.35,125.93C113.35,125.93,113.35,125.93,113.35,125.93z"/>
	<path class="st8" d="M332.88,125.87c-0.19-0.17-0.32-0.31-0.48-0.42c-0.6-0.43-1.29-0.46-1.88-0.09c-0.59,0.38-0.91,1.13-0.75,1.83
		c0.32,1.43,1.84,1.71,2.66,1c0.07-0.06,0.15-0.12,0.21-0.19c0.17-0.18,0.33-0.13,0.5,0c0.1,0.08,0.2,0.16,0.3,0.24
		c0.17,0.13,0.14,0.28,0.04,0.41c-0.34,0.45-0.79,0.74-1.32,0.9c-1.18,0.35-2.51-0.16-3.17-1.2c-0.68-1.07-0.57-2.44,0.27-3.37
		c0.83-0.93,2.22-1.22,3.32-0.69c0.32,0.15,0.59,0.37,0.83,0.64c0.23,0.27,0.22,0.37-0.07,0.62
		C333.22,125.64,333.08,125.72,332.88,125.87z"/>
	<path class="st10" d="M346.79,128.56c0.12-0.14,0.24-0.29,0.36-0.43c0.06-0.07,0.15-0.11,0.25-0.18c0.23,0.16,0.45,0.34,0.69,0.47
		c0.34,0.19,0.71,0.28,1.1,0.18c0.27-0.07,0.49-0.27,0.51-0.5c0.02-0.26-0.14-0.42-0.34-0.53c-0.28-0.15-0.58-0.26-0.86-0.4
		c-0.28-0.14-0.58-0.27-0.84-0.44c-0.84-0.53-0.78-1.88,0.11-2.41c0.83-0.49,2.15-0.34,2.84,0.35c0.13,0.13,0.13,0.27,0,0.41
		c-0.04,0.05-0.08,0.1-0.12,0.15c-0.26,0.29-0.28,0.3-0.63,0.11c-0.22-0.13-0.45-0.25-0.7-0.28c-0.19-0.02-0.38-0.01-0.56,0.04
		c-0.2,0.05-0.34,0.19-0.35,0.4c-0.01,0.17,0.05,0.33,0.2,0.41c0.25,0.14,0.51,0.26,0.77,0.39c0.34,0.17,0.7,0.32,1.02,0.52
		c0.96,0.6,0.83,2.08-0.21,2.59C348.93,129.93,347.58,129.6,346.79,128.56z"/>
	<path class="st10" d="M254.6,129.63c-0.74,0.02-1.38-0.22-1.92-0.72c-0.26-0.23-0.26-0.35,0-0.63c0.04-0.05,0.09-0.09,0.13-0.14
		c0.14-0.15,0.29-0.24,0.48-0.06c0.21,0.2,0.45,0.35,0.73,0.45c0.34,0.12,0.68,0.16,1.02-0.01c0.19-0.09,0.31-0.22,0.32-0.44
		c0.02-0.21-0.07-0.38-0.26-0.47c-0.31-0.16-0.63-0.31-0.95-0.45c-0.32-0.14-0.65-0.28-0.92-0.51c-0.69-0.57-0.7-1.59-0.02-2.18
		c0.78-0.68,2.37-0.58,3.07,0.2c0.06,0.06,0.1,0.21,0.07,0.26c-0.13,0.18-0.28,0.34-0.45,0.49c-0.05,0.04-0.18,0.01-0.26-0.02
		c-0.2-0.09-0.39-0.21-0.6-0.29c-0.24-0.1-0.5-0.11-0.75-0.04c-0.19,0.06-0.35,0.18-0.39,0.38c-0.05,0.21,0.07,0.38,0.24,0.48
		c0.28,0.15,0.57,0.28,0.86,0.41c0.35,0.15,0.69,0.32,1,0.55c0.75,0.55,0.68,1.9-0.14,2.39C255.51,129.5,255.13,129.62,254.6,129.63
		z"/>
	<path class="st8" d="M258.97,122.78c0.16,0.33,0.05,0.69,0.09,1.03c0.02,0.18,0.13,0.28,0.31,0.29c0.32,0.01,0.64,0.01,0.96,0.02
		c0.23,0.01,0.34,0.14,0.34,0.37c0,0.13,0.01,0.26-0.01,0.38c-0.02,0.13-0.1,0.23-0.24,0.26c-0.09,0.02-0.19,0.01-0.29,0.02
		c-0.34,0.04-0.77-0.16-1,0.14c-0.21,0.27-0.07,0.68-0.08,1.02c-0.01,0.45-0.02,0.89,0.01,1.34c0.04,0.62,0.28,0.85,0.88,0.93
		c0.09,0.01,0.19,0,0.29,0.01c0.57,0.02,0.67,0.13,0.6,0.64c-0.03,0.22-0.15,0.34-0.37,0.36c-0.06,0.01-0.13,0.01-0.19,0.02
		c-1.63,0.16-2.46-0.56-2.41-2.16c0.02-0.64,0-1.28,0-1.91c0-0.22-0.07-0.34-0.31-0.39c-0.54-0.09-0.56-0.13-0.53-0.65
		c0.02-0.3,0.05-0.33,0.4-0.4c0.43-0.08,0.44-0.08,0.44-0.45C257.87,122.76,257.69,122.59,258.97,122.78z"/>
	<path class="st8" d="M273.67,124.02c0.01-0.21,0.01-0.37,0.03-0.53c0.03-0.24-0.12-0.56,0.12-0.71c0.24-0.16,0.56-0.07,0.84-0.04
		c0.11,0.01,0.17,0.1,0.18,0.19c0.02,0.19,0.02,0.38,0.03,0.57c0.02,0.6,0.02,0.6,0.66,0.61c0.1,0,0.19,0,0.29,0
		c0.61,0.01,0.7,0.11,0.62,0.74c-0.02,0.17-0.1,0.3-0.3,0.3c-0.29,0-0.57,0-0.86,0.01c-0.35,0.01-0.4,0.05-0.41,0.38
		c-0.01,0.7-0.02,1.41,0,2.11c0.02,0.62,0.26,0.87,0.86,0.94c0.16,0.02,0.32,0,0.48,0c0.35,0.01,0.4,0.05,0.41,0.36
		c0.02,0.54-0.05,0.64-0.55,0.67c-0.29,0.02-0.58,0.03-0.86-0.01c-0.89-0.11-1.44-0.68-1.5-1.58c-0.04-0.67-0.01-1.34-0.02-2.01
		c0-0.19-0.01-0.38-0.01-0.57c0-0.15-0.09-0.23-0.23-0.25c-0.09-0.02-0.19-0.01-0.28-0.03c-0.33-0.07-0.35-0.1-0.37-0.44
		c-0.02-0.46,0.02-0.5,0.51-0.6C273.41,124.09,273.5,124.06,273.67,124.02z"/>
	<path class="st8" d="M180.17,125.15c-0.27,0-0.49,0-0.72,0c-0.22,0-0.44,0-0.65,0c-0.21,0.33-0.12,0.66-0.12,0.97
		c-0.01,0.54-0.02,1.09,0.01,1.63c0.02,0.47,0.23,0.7,0.68,0.8c0.18,0.04,0.38,0.03,0.57,0.04c0.15,0,0.35-0.07,0.43,0.1
		c0.11,0.23,0.1,0.5,0,0.74c-0.03,0.07-0.14,0.13-0.22,0.15c-0.44,0.09-0.89,0.1-1.33,0c-0.75-0.17-1.23-0.69-1.29-1.47
		c-0.05-0.64-0.02-1.28-0.03-1.91c0-0.16,0-0.32,0-0.48c-0.01-0.46-0.01-0.46-0.44-0.55c-0.43-0.09-0.45-0.13-0.45-0.56
		c0.01-0.39,0.01-0.39,0.43-0.48c0.06-0.01,0.13-0.02,0.19-0.02c0.19-0.02,0.27-0.14,0.27-0.32c0-0.32,0-0.63,0-0.95
		c0.14-0.04,0.23-0.09,0.32-0.1c0.85-0.02,0.88-0.07,0.86,0.79c0,0.1,0,0.19,0,0.29c0,0.19,0.09,0.3,0.28,0.3
		c0.22,0.01,0.45,0,0.67,0.01c0.62,0.01,0.62,0.01,0.61,0.66C180.24,124.86,180.21,124.96,180.17,125.15z"/>
	<path class="st8" d="M119.65,125.25c-0.15-0.04-0.24-0.07-0.33-0.08c-0.51-0.08-0.55-0.12-0.54-0.56c0-0.37,0.05-0.42,0.42-0.48
		c0.12-0.02,0.25-0.04,0.37-0.05c0.14-0.36,0.04-0.71,0.09-1.06c0.02-0.19,0.13-0.27,0.31-0.28c0.03,0,0.06,0,0.1,0
		c0.7,0,0.77-0.06,0.75,0.71c0,0.13,0,0.25,0.01,0.38c0,0.2,0.13,0.29,0.3,0.29c0.29,0.01,0.57,0,0.86,0.01
		c0.34,0.01,0.42,0.1,0.43,0.48c0,0.03,0,0.06,0,0.1c-0.01,0.37-0.09,0.45-0.44,0.46c-0.29,0.01-0.57,0-0.86,0.01
		c-0.18,0.01-0.29,0.11-0.29,0.3c0,0.73-0.02,1.47,0,2.2c0.02,0.6,0.29,0.84,0.89,0.91c0.09,0.01,0.19,0,0.29,0.01
		c0.55,0.02,0.64,0.11,0.57,0.66c-0.02,0.17-0.09,0.31-0.28,0.33c-0.44,0.07-0.89,0.09-1.33-0.01c-0.77-0.17-1.25-0.73-1.31-1.57
		c-0.04-0.57-0.01-1.15-0.02-1.72C119.65,125.94,119.65,125.59,119.65,125.25z"/>
	<path class="st8" d="M312.35,129.64c-0.22-0.02-0.45-0.02-0.67-0.07c-0.77-0.17-1.26-0.72-1.33-1.55
		c-0.04-0.54-0.02-1.08-0.02-1.63c0-0.19,0.01-0.38,0-0.57c-0.01-0.19,0.02-0.4-0.06-0.56c-0.1-0.19-0.34-0.1-0.52-0.13
		c-0.19-0.03-0.26-0.16-0.28-0.33c-0.01-0.09-0.01-0.19,0-0.29c0.01-0.3,0.06-0.34,0.4-0.41c0.45-0.09,0.45-0.09,0.47-0.51
		c0-0.03,0-0.06,0-0.1c0.03-0.24-0.11-0.55,0.13-0.72c0.24-0.16,0.55-0.08,0.84-0.05c0.07,0.01,0.15,0.11,0.18,0.19
		c0.04,0.12,0.03,0.25,0.03,0.38c-0.01,0.84-0.01,0.81,0.86,0.81c0.03,0,0.06,0,0.1,0c0.6,0.01,0.72,0.14,0.63,0.74
		c-0.02,0.17-0.12,0.29-0.31,0.3c-0.13,0-0.26,0-0.38,0c-1.01-0.01-0.89-0.03-0.9,0.96c0,0.48-0.01,0.96,0,1.44
		c0.02,0.72,0.27,0.98,0.97,1.04c0.16,0.01,0.32-0.01,0.48-0.01c0.06,0,0.14-0.01,0.18,0.03c0.21,0.17,0.13,0.41,0.13,0.62
		c0,0.16-0.06,0.32-0.25,0.35C312.8,129.61,312.58,129.62,312.35,129.64z"/>
	<path class="st8" d="M169.81,125.41c0,1.18,0,2.36,0,3.54c0,0.49-0.04,0.52-0.56,0.53c-0.1,0-0.19,0-0.29,0
		c-0.24-0.01-0.32-0.14-0.32-0.37c0-0.99,0-1.98,0-2.97c0-1.47,0-2.94,0-4.41c0-0.38,0.06-0.42,0.45-0.43c0.1,0,0.19,0,0.29,0
		c0.36,0.02,0.42,0.07,0.42,0.47C169.82,122.99,169.81,124.2,169.81,125.41z"/>
	<path class="st8" d="M218.61,125.44c0,1.21,0,2.43,0,3.64c0,0.33-0.07,0.39-0.39,0.4c-0.16,0.01-0.32,0.01-0.48-0.01
		c-0.17-0.02-0.3-0.1-0.3-0.3c0-0.16,0-0.32,0-0.48c0-2.2,0-4.41,0-6.61c0-0.16,0-0.32,0-0.48c0-0.2,0.13-0.29,0.3-0.3
		c0.22-0.01,0.45,0,0.67,0.02c0.11,0.01,0.17,0.1,0.18,0.19c0.02,0.16,0.02,0.32,0.02,0.48
		C218.61,123.15,218.61,124.29,218.61,125.44C218.61,125.44,218.61,125.44,218.61,125.44z"/>
	<path class="st8" d="M187.24,126.74c0-0.76,0-1.53,0-2.29c0-0.23,0.12-0.35,0.36-0.34c0.31,0.01,0.64-0.09,0.77,0.36
		c0.03,0.12,0.21,0.05,0.32-0.02c0.38-0.24,0.79-0.41,1.25-0.38c0.24,0.01,0.36,0.12,0.38,0.34c0.01,0.16,0.01,0.32-0.01,0.48
		c-0.01,0.13-0.08,0.24-0.23,0.26c-0.13,0.02-0.25,0.02-0.38,0.04c-0.88,0.15-1.26,0.57-1.29,1.48c-0.02,0.7-0.01,1.4-0.01,2.1
		c0,0.13-0.01,0.25,0,0.38c0.01,0.25-0.15,0.33-0.36,0.34c-0.13,0.01-0.25,0.01-0.38,0c-0.37-0.01-0.42-0.06-0.43-0.46
		c0-0.06,0-0.13,0-0.19C187.23,128.14,187.23,127.44,187.24,126.74C187.24,126.74,187.24,126.74,187.24,126.74z"/>
	<path class="st8" d="M340.74,126.76c0-0.73-0.01-1.46,0-2.19c0-0.39,0.07-0.46,0.43-0.46c0.28,0,0.58-0.06,0.69,0.34
		c0.04,0.15,0.2,0.08,0.31,0.01c0.35-0.22,0.73-0.38,1.16-0.39c0.38-0.01,0.49,0.1,0.5,0.51c0.01,0.47-0.06,0.61-0.5,0.6
		c-0.09,0-0.19,0.01-0.28,0.03c-0.67,0.15-1.07,0.56-1.11,1.24c-0.04,0.63-0.02,1.27-0.02,1.91c0,0.29,0,0.57-0.01,0.86
		c-0.01,0.23-0.13,0.28-0.61,0.27c-0.21,0-0.47,0.08-0.53-0.24c-0.03-0.15-0.01-0.32-0.01-0.48
		C340.74,128.1,340.74,127.43,340.74,126.76C340.74,126.76,340.74,126.76,340.74,126.76z"/>
	<path class="st11" d="M166.04,121.4c0.17-0.04,0.29-0.08,0.41-0.08c0.74-0.03,0.74-0.03,0.74,0.71c0,2.29,0,4.59,0,6.88
		c0,0.16-0.02,0.31-0.03,0.45c-0.08,0.05-0.14,0.1-0.19,0.1c-1.11,0.06-0.94,0.01-0.94-0.89c-0.01-2.14,0-4.27,0-6.41
		C166.04,121.92,166.04,121.67,166.04,121.4z"/>
	<path class="st11" d="M110.82,129.38c0-0.23,0-0.44,0-0.66c0-2.2,0-4.4,0-6.6c0-0.19,0-0.38,0.01-0.57
		c0.01-0.15,0.1-0.23,0.25-0.23c0.28,0,0.57-0.08,0.87,0.11c0.01,0.17,0.03,0.35,0.03,0.54c0,2.26,0,4.53,0,6.79
		c0,0.16,0,0.32-0.01,0.48c-0.01,0.15-0.12,0.22-0.25,0.23C111.42,129.49,111.14,129.52,110.82,129.38z"/>
	<path class="st8" d="M164.64,126.82c0,0.76,0,1.53,0,2.29c0,0.23-0.1,0.35-0.33,0.37c-0.03,0-0.06,0-0.1,0
		c-0.78,0.01-0.75,0.01-0.75-0.71c0-1.37,0-2.73,0-4.1c0-0.56,0.05-0.59,0.6-0.58c0.06,0,0.13,0,0.19,0c0.22,0,0.36,0.11,0.37,0.34
		c0.01,0.19,0.01,0.38,0.01,0.57C164.64,125.61,164.64,126.22,164.64,126.82C164.64,126.82,164.64,126.82,164.64,126.82z"/>
	<path class="st10" d="M345.78,126.83c0,0.76,0,1.52,0,2.29c0,0.24-0.11,0.35-0.33,0.36c-0.06,0-0.13,0-0.19,0
		c-0.61,0.01-0.63-0.01-0.64-0.63c0-1.4-0.01-2.79,0-4.19c0-0.54,0.05-0.58,0.61-0.57c0.06,0,0.13,0,0.19,0
		c0.23,0.01,0.35,0.12,0.35,0.35c0,0.54,0,1.08,0,1.62C345.79,126.33,345.79,126.58,345.78,126.83
		C345.79,126.83,345.78,126.83,345.78,126.83z"/>
	<path class="st10" d="M124.66,126.87c0,0.73,0.01,1.46,0,2.19c0,0.37-0.06,0.41-0.46,0.42c-0.06,0-0.13,0-0.19,0
		c-0.46-0.01-0.5-0.05-0.51-0.48c-0.01-1.46-0.01-2.92,0-4.38c0-0.49,0.06-0.53,0.56-0.53c0.06,0,0.13,0,0.19,0
		c0.32,0.01,0.4,0.08,0.4,0.39C124.66,125.29,124.65,126.08,124.66,126.87C124.65,126.87,124.66,126.87,124.66,126.87z"/>
	<path class="st10" d="M192.27,126.74c0,0.79,0,1.59,0,2.38c0,0.23-0.1,0.35-0.33,0.36c-0.06,0-0.13,0-0.19,0
		c-0.61,0.01-0.64-0.01-0.64-0.63c0-1.4-0.01-2.79,0-4.19c0-0.55,0.05-0.58,0.61-0.57c0.06,0,0.13,0,0.19,0
		c0.23,0.01,0.35,0.12,0.35,0.35c0,0.57,0,1.14,0,1.71C192.28,126.36,192.28,126.55,192.27,126.74
		C192.28,126.74,192.28,126.74,192.27,126.74z"/>
	<path class="st10" d="M221.21,126.84c0,0.76,0,1.52,0,2.29c0,0.23-0.11,0.35-0.33,0.36c-0.06,0-0.13,0-0.19,0
		c-0.61,0.01-0.63-0.01-0.64-0.63c0-1.4-0.01-2.79,0-4.19c0-0.54,0.05-0.57,0.61-0.57c0.06,0,0.13,0,0.19,0
		c0.23,0.01,0.35,0.12,0.35,0.35c0,0.6,0,1.21,0,1.81C221.22,126.45,221.22,126.64,221.21,126.84
		C221.21,126.84,221.21,126.84,221.21,126.84z"/>
	<path class="st10" d="M245.36,126.83c0,0.76,0,1.52,0,2.29c0,0.24-0.11,0.35-0.33,0.36c-0.06,0-0.13,0-0.19,0
		c-0.61,0.01-0.63-0.01-0.64-0.63c0-1.4-0.01-2.79,0-4.19c0-0.54,0.05-0.58,0.61-0.57c0.06,0,0.13,0,0.19,0
		c0.23,0.01,0.35,0.12,0.35,0.35c0,0.54,0,1.08,0,1.62C245.36,126.33,245.36,126.58,245.36,126.83
		C245.36,126.83,245.36,126.83,245.36,126.83z"/>
	<path class="st8" d="M364.28,124.63c-0.03-0.6-0.06-1.2-0.08-1.8c-0.01-0.49,0.02-0.51,0.54-0.52c0.13,0,0.25,0,0.38,0
		c0.39,0.01,0.44,0.04,0.42,0.45c-0.05,1.33-0.12,2.66-0.18,3.99c-0.01,0.23-0.14,0.34-0.36,0.34c-0.03,0-0.06,0-0.1,0
		c-0.44,0.01-0.51-0.05-0.53-0.46c-0.03-0.66-0.05-1.33-0.08-1.99C364.3,124.63,364.29,124.63,364.28,124.63z"/>
	<path class="st8" d="M293.43,121.01c0.01,0.1,0.04,0.18,0.02,0.22c-0.39,0.61-0.79,1.22-1.18,1.83c-0.19,0.3-0.49,0.24-0.77,0.21
		c-0.08-0.01-0.17-0.09-0.14-0.21c0.22-0.62,0.44-1.25,0.67-1.87c0.05-0.12,0.15-0.21,0.29-0.21
		C292.69,120.96,293.07,120.93,293.43,121.01z"/>
	<path class="st8" d="M325.01,123.25c0.05-0.5,0.26-0.9,0.42-1.3c0.13-0.32,0.12-0.75,0.44-0.91c0.34-0.17,0.75-0.08,1.13-0.04
		c0.16,0.01,0.2,0.15,0.12,0.28c-0.4,0.61-0.8,1.23-1.21,1.83C325.68,123.42,325.35,123.27,325.01,123.25z"/>
	<path class="st10" d="M356.14,120.97c0.05,0.4-0.14,0.55-0.25,0.73c-0.31,0.48-0.61,0.96-0.96,1.41c-0.23,0.29-0.56,0.21-0.93,0.07
		c0.25-0.67,0.49-1.32,0.74-1.96c0.06-0.16,0.17-0.25,0.36-0.25C355.44,120.97,355.78,120.97,356.14,120.97z"/>
	<path class="st8" d="M365.74,128.78c0.01,0.49-0.34,0.85-0.83,0.85c-0.48,0-0.86-0.36-0.87-0.83c0-0.44,0.41-0.86,0.85-0.87
		C365.36,127.92,365.73,128.3,365.74,128.78z"/>
	<path class="st8" d="M124.06,121.36c0.45-0.02,0.79,0.3,0.8,0.75c0.01,0.39-0.29,0.73-0.69,0.77c-0.41,0.05-0.83-0.29-0.86-0.7
		C123.28,121.77,123.63,121.38,124.06,121.36z"/>
	<path class="st8" d="M164.84,122.12c0,0.4-0.39,0.78-0.8,0.77c-0.4-0.01-0.72-0.33-0.74-0.72c-0.02-0.44,0.3-0.8,0.74-0.81
		C164.46,121.35,164.83,121.7,164.84,122.12z"/>
	<path class="st8" d="M192.48,122.12c0,0.42-0.38,0.78-0.8,0.76c-0.4-0.02-0.72-0.34-0.74-0.72c-0.02-0.44,0.31-0.79,0.75-0.8
		C192.12,121.35,192.48,121.7,192.48,122.12z"/>
	<path class="st8" d="M345.98,122.13c0,0.42-0.38,0.77-0.81,0.75c-0.4-0.02-0.72-0.34-0.74-0.72c-0.02-0.44,0.31-0.79,0.75-0.8
		C345.63,121.35,345.99,121.7,345.98,122.13z"/>
	<path class="st8" d="M244.81,121.36c0.43,0.01,0.78,0.38,0.75,0.8c-0.02,0.38-0.36,0.7-0.75,0.72c-0.43,0.02-0.8-0.34-0.8-0.76
		C244.02,121.69,244.37,121.35,244.81,121.36z"/>
	<path class="st8" d="M220.66,122.88c-0.43,0.01-0.79-0.34-0.79-0.77c0.01-0.44,0.36-0.77,0.8-0.75c0.39,0.01,0.72,0.33,0.74,0.72
		C221.44,122.5,221.09,122.87,220.66,122.88z"/>
	<path class="st8" d="M108.6,90.17c0.09,0,0.17,0,0.26,0c-0.1,0.55-0.1,1.12-0.41,1.62c-0.07,0.11-0.01,0.3-0.01,0.45
		c0,0-0.06,0.01-0.06,0.01s-0.05-0.02-0.05-0.02c0.16-0.2,0.23-0.42,0.21-0.68C108.52,91.09,108.48,90.62,108.6,90.17z"/>
	<path class="st8" d="M145.74,12.13c-0.14-0.03-0.22,0.08-0.29,0.17c-0.26,0.3-0.53,0.58-0.89,0.75c-0.06-0.05-0.13-0.1-0.19-0.15
		c0.37-0.41,0.91-0.49,1.36-0.76L145.74,12.13z"/>
	<path class="st4" d="M70.2,111.13c-0.15-0.11-0.34-0.17-0.41-0.37c-0.01-0.02,0.02-0.05,0.04-0.07c0.02-0.02,0.06-0.05,0.07-0.04
		c0.14,0.12,0.28,0.24,0.41,0.37C70.31,111.09,70.27,111.12,70.2,111.13z"/>
	<path class="st3" d="M66.86,104.2c0,0.02,0.02,0.05,0.01,0.07c0,0.02-0.02,0.04-0.04,0.05c0-0.02-0.01-0.05-0.01-0.07
		C66.83,104.23,66.85,104.21,66.86,104.2z"/>
	<path class="st2" d="M143.89,13.15c0.1-0.05,0.19-0.19,0.31-0.07c0.12,0.11,0.05,0.21-0.05,0.3
		C144.07,13.3,143.98,13.23,143.89,13.15z"/>
	<path class="st2" d="M144.36,12.9c0.06,0.05,0.13,0.1,0.19,0.15c-0.05,0.02-0.11,0.08-0.15,0.07
		C144.29,13.07,144.33,12.98,144.36,12.9z"/>
	<polygon class="st8" points="145.72,12.14 145.74,12.11 145.74,12.13 	"/>
	<path class="st12" d="M226.51,128.95c0.06-0.06,0.12-0.15,0.19-0.07c0.04,0.05,0.01,0.16,0.01,0.24
		C226.65,129.07,226.58,129.01,226.51,128.95z"/>
</g>
</svg>
